<svg width="700" height="150" viewBox="0 0 700 150" fill="none" xmlns="http://www.w3.org/2000/svg">
  <!-- Circle Border -->
  <circle cx="75" cy="75" r="68" stroke="#5a03d5" stroke-width="5" fill="white"/>
  
  <!-- Top Arcs (Rainbow/Semicircles from outside to inside) -->
  <path d="M 20 75 A 55 55 0 0 1 130 75" stroke="#5a03d5" stroke-width="5" fill="none"/>
  <path d="M 30 75 A 45 45 0 0 1 120 75" stroke="#5a03d5" stroke-width="5" fill="none"/>
  <path d="M 40 75 A 35 35 0 0 1 110 75" stroke="#5a03d5" stroke-width="5" fill="none"/>
  <path d="M 50 75 A 25 25 0 0 1 100 75" stroke="#5a03d5" stroke-width="5" fill="none"/>
  
  <!-- Bottom Horizontal Stripes (Layered field pattern) -->
  <line x1="20" y1="85" x2="130" y2="85" stroke="#5a03d5" stroke-width="4"/>
  <line x1="25" y1="95" x2="125" y2="95" stroke="#5a03d5" stroke-width="4"/>
  <line x1="30" y1="105" x2="120" y2="105" stroke="#5a03d5" stroke-width="4"/>
  <line x1="35" y1="115" x2="115" y2="115" stroke="#5a03d5" stroke-width="4"/>
  
  <!-- Triangle/Mountain at Bottom -->
  <path d="M 48 128 L 75 100 L 102 128 Z" fill="#5a03d5"/>
  
  <!-- Text: Corion -->
  <text x="160" y="70" font-family="Arial, sans-serif" font-size="42" font-weight="400" fill="#2d3748" letter-spacing="1">
    Corion
  </text>
  
  <!-- Text: BANK -->
  <text x="160" y="110" font-family="Arial, sans-serif" font-size="32" font-weight="700" fill="#5a03d5" letter-spacing="8">
    BANK
  </text>
</svg>