<svg width="363" height="197" viewBox="0 0 363 197" fill="none" xmlns="http://www.w3.org/2000/svg">
<rect width="363" height="197" fill="url(#paint0_radial_880_150)"/>
<path d="M238.16 148.559C235.796 127.707 259.734 92 301.853 92C326.362 92 345 103.246 345 127.422C345 154.627 304.438 175.41 281.6 178.442C258.35 181.53 240.798 171.827 238.16 148.559Z" fill="url(#paint1_linear_880_150)"/>
<circle cx="169" cy="130" r="32" fill="url(#paint2_linear_880_150)"/>
<circle cx="250.5" cy="41.5" r="12.5" fill="url(#paint3_linear_880_150)"/>
<circle cx="54.5" cy="61.5" r="12.5" fill="url(#paint4_linear_880_150)"/>
<circle cx="117.5" cy="28.5" r="12.5" fill="url(#paint5_linear_880_150)"/>
<defs>
<radialGradient id="paint0_radial_880_150" cx="0" cy="0" r="1" gradientUnits="userSpaceOnUse" gradientTransform="translate(181.5 98.5) rotate(90) scale(98.5 181.5)">
<stop stop-color="#5A03D5"/>
<stop offset="1" stop-color="#6B04FD"/>
</radialGradient>
<linearGradient id="paint1_linear_880_150" x1="291.5" y1="92" x2="291.5" y2="179" gradientUnits="userSpaceOnUse">
<stop stop-color="#6B04FD"/>
<stop offset="1" stop-color="#7916FF"/>
</linearGradient>
<linearGradient id="paint2_linear_880_150" x1="169" y1="98" x2="169" y2="162" gradientUnits="userSpaceOnUse">
<stop stop-color="#6B04FD"/>
<stop offset="1" stop-color="#7916FF"/>
</linearGradient>
<linearGradient id="paint3_linear_880_150" x1="250.5" y1="29" x2="250.5" y2="54" gradientUnits="userSpaceOnUse">
<stop stop-color="#6B04FD"/>
<stop offset="1" stop-color="#7916FF"/>
</linearGradient>
<linearGradient id="paint4_linear_880_150" x1="54.5" y1="49" x2="54.5" y2="74" gradientUnits="userSpaceOnUse">
<stop stop-color="#6B04FD"/>
<stop offset="1" stop-color="#7916FF"/>
</linearGradient>
<linearGradient id="paint5_linear_880_150" x1="117.5" y1="16" x2="117.5" y2="41" gradientUnits="userSpaceOnUse">
<stop stop-color="#6B04FD"/>
<stop offset="1" stop-color="#7916FF"/>
</linearGradient>
</defs>
</svg>
