<svg width="390" height="1431" viewBox="0 0 390 1431" fill="none" xmlns="http://www.w3.org/2000/svg">
<g clip-path="url(#clip0_677_3027)">
<rect width="390" height="1431" fill="url(#paint0_linear_677_3027)"/>
<g filter="url(#filter0_f_677_3027)">
<path d="M542.982 164.073C516.345 131.448 484.903 113.04 472.755 122.959C460.607 132.877 472.352 167.366 498.989 199.991C513.917 218.275 530.188 229.693 535.33 225.494C540.473 221.296 532.54 203.07 517.612 184.786C490.975 152.161 459.533 133.754 447.385 143.672C435.237 153.591 446.982 188.079 473.619 220.704C488.547 238.988 504.818 250.407 509.96 246.208C515.103 242.009 507.17 223.783 492.242 205.499C465.605 172.874 434.103 154.517 421.881 164.496C409.658 174.475 421.342 209.013 447.979 241.638C462.907 259.922 479.178 271.34 484.321 267.142C489.463 262.943 481.53 244.717 466.602 226.434C439.965 193.808 408.524 175.401 396.376 185.32C384.227 195.238 395.973 229.726 422.61 262.351C437.538 280.635 453.808 292.054 458.951 287.855C464.093 283.656 456.161 265.43 441.233 247.146C414.596 214.521 383.154 196.115 371.006 206.033C358.857 215.952 370.603 250.439 397.24 283.064C412.168 301.348 428.439 312.767 433.581 308.569C438.723 304.37 430.791 286.144 415.862 267.86C389.225 235.235 357.784 216.828 345.636 226.746C333.488 236.665 345.233 271.153 371.87 303.778C386.798 322.062 403.069 333.48 408.211 329.282C413.353 325.084 405.42 306.858 390.492 288.574C363.855 255.949 332.354 237.591 320.131 247.57C307.909 257.549 319.593 292.087 346.23 324.712" stroke="#5A03D5" stroke-width="3" stroke-linecap="round"/>
</g>
<g filter="url(#filter1_f_677_3027)">
<path d="M203.293 576.163C203.53 578.833 198.568 580.295 195.996 576.163C193.216 572.513 195.26 564.037 203.293 561.59C210.859 558.693 222.831 564.254 225.184 576.163C228.182 587.614 219.129 603.062 203.293 605.311C187.949 608.406 168.935 595.872 166.808 576.163C163.584 556.935 179.679 534.469 203.293 532.442C226.449 529.125 252.445 548.672 254.372 576.163C257.801 603.173 234.719 632.654 203.293 634.458C172.331 637.997 139.33 611.432 137.62 576.163C133.979 541.353 164.061 504.895 203.293 503.295C242.03 499.556 282.078 533.094 283.56 576.163C287.424 618.751 250.314 662.227 203.293 663.605C156.745 667.566 109.711 627.014 108.432 576.163C104.369 525.794 148.462 475.309 203.293 474.147C257.634 469.965 311.692 517.535 312.748 576.163C317.038 634.333 265.913 691.795 203.293 692.753C141.164 697.139 80.0782 642.591 79.2443 576.163C74.7503 510.216 132.871 445.736 203.293 445" stroke="#5A03D5" stroke-width="3" stroke-linecap="round"/>
</g>
</g>
<defs>
<filter id="filter0_f_677_3027" x="263.783" y="68.7737" width="330.698" height="312.877" filterUnits="userSpaceOnUse" color-interpolation-filters="sRGB">
<feFlood flood-opacity="0" result="BackgroundImageFix"/>
<feBlend mode="normal" in="SourceGraphic" in2="BackgroundImageFix" result="shape"/>
<feGaussianBlur stdDeviation="25" result="effect1_foregroundBlur_677_3027"/>
</filter>
<filter id="filter1_f_677_3027" x="-122.5" y="243.5" width="637" height="651" filterUnits="userSpaceOnUse" color-interpolation-filters="sRGB">
<feFlood flood-opacity="0" result="BackgroundImageFix"/>
<feBlend mode="normal" in="SourceGraphic" in2="BackgroundImageFix" result="shape"/>
<feGaussianBlur stdDeviation="100" result="effect1_foregroundBlur_677_3027"/>
</filter>
<linearGradient id="paint0_linear_677_3027" x1="195" y1="0" x2="195" y2="1431" gradientUnits="userSpaceOnUse">
<stop stop-color="#F3F1FF"/>
<stop offset="1" stop-color="white"/>
</linearGradient>
<clipPath id="clip0_677_3027">
<rect width="390" height="1431" fill="white"/>
</clipPath>
</defs>
</svg>
